<svg width="1440" height="1096" viewBox="0 0 1440 1096" fill="none" xmlns="http://www.w3.org/2000/svg">
<g clip-path="url(#clip0_3045_709)">
<mask id="path-3-inside-1_3045_709" fill="white">
<path d="M-48 -56H48V40H-48V-56Z"/>
</mask>
<path d="M-48 -56H48V40H-48V-56Z" fill="#191C1F"/>
<path d="M48 40V41H49V40H48ZM47 -56V40H49V-56H47ZM48 39H-48V41H48V39Z" fill="#353A40" mask="url(#path-3-inside-1_3045_709)"/>
<mask id="path-5-inside-2_3045_709" fill="white">
<path d="M48 -56H144V40H48V-56Z"/>
</mask>
<path d="M144 40V41H145V40H144ZM143 -56V40H145V-56H143ZM144 39H48V41H144V39Z" fill="#353A40" mask="url(#path-5-inside-2_3045_709)"/>
<mask id="path-7-inside-3_3045_709" fill="white">
<path d="M144 -56H240V40H144V-56Z"/>
</mask>
<path d="M240 40V41H241V40H240ZM239 -56V40H241V-56H239ZM240 39H144V41H240V39Z" fill="#353A40" mask="url(#path-7-inside-3_3045_709)"/>
<mask id="path-9-inside-4_3045_709" fill="white">
<path d="M240 -56H336V40H240V-56Z"/>
</mask>
<path d="M336 40V41H337V40H336ZM335 -56V40H337V-56H335ZM336 39H240V41H336V39Z" fill="#353A40" mask="url(#path-9-inside-4_3045_709)"/>
<mask id="path-11-inside-5_3045_709" fill="white">
<path d="M336 -56H432V40H336V-56Z"/>
</mask>
<path d="M432 40V41H433V40H432ZM431 -56V40H433V-56H431ZM432 39H336V41H432V39Z" fill="#353A40" mask="url(#path-11-inside-5_3045_709)"/>
<mask id="path-13-inside-6_3045_709" fill="white">
<path d="M432 -56H528V40H432V-56Z"/>
</mask>
<path d="M528 40V41H529V40H528ZM527 -56V40H529V-56H527ZM528 39H432V41H528V39Z" fill="#353A40" mask="url(#path-13-inside-6_3045_709)"/>
<mask id="path-15-inside-7_3045_709" fill="white">
<path d="M528 -56H624V40H528V-56Z"/>
</mask>
<path d="M624 40V41H625V40H624ZM623 -56V40H625V-56H623ZM624 39H528V41H624V39Z" fill="#353A40" mask="url(#path-15-inside-7_3045_709)"/>
<mask id="path-17-inside-8_3045_709" fill="white">
<path d="M624 -56H720V40H624V-56Z"/>
</mask>
<path d="M720 40V41H721V40H720ZM719 -56V40H721V-56H719ZM720 39H624V41H720V39Z" fill="#353A40" mask="url(#path-17-inside-8_3045_709)"/>
<mask id="path-19-inside-9_3045_709" fill="white">
<path d="M720 -56H816V40H720V-56Z"/>
</mask>
<path d="M816 40V41H817V40H816ZM815 -56V40H817V-56H815ZM816 39H720V41H816V39Z" fill="#353A40" mask="url(#path-19-inside-9_3045_709)"/>
<mask id="path-21-inside-10_3045_709" fill="white">
<path d="M816 -56H912V40H816V-56Z"/>
</mask>
<path d="M912 40V41H913V40H912ZM911 -56V40H913V-56H911ZM912 39H816V41H912V39Z" fill="#353A40" mask="url(#path-21-inside-10_3045_709)"/>
<mask id="path-23-inside-11_3045_709" fill="white">
<path d="M912 -56H1008V40H912V-56Z"/>
</mask>
<path d="M1008 40V41H1009V40H1008ZM1007 -56V40H1009V-56H1007ZM1008 39H912V41H1008V39Z" fill="#353A40" mask="url(#path-23-inside-11_3045_709)"/>
<mask id="path-25-inside-12_3045_709" fill="white">
<path d="M1008 -56H1104V40H1008V-56Z"/>
</mask>
<path d="M1104 40V41H1105V40H1104ZM1103 -56V40H1105V-56H1103ZM1104 39H1008V41H1104V39Z" fill="#353A40" mask="url(#path-25-inside-12_3045_709)"/>
<mask id="path-27-inside-13_3045_709" fill="white">
<path d="M1104 -56H1200V40H1104V-56Z"/>
</mask>
<path d="M1104 -56H1200V40H1104V-56Z" fill="#191C1F"/>
<path d="M1200 40V41H1201V40H1200ZM1199 -56V40H1201V-56H1199ZM1200 39H1104V41H1200V39Z" fill="#353A40" mask="url(#path-27-inside-13_3045_709)"/>
<mask id="path-29-inside-14_3045_709" fill="white">
<path d="M1200 -56H1296V40H1200V-56Z"/>
</mask>
<path d="M1296 40V41H1297V40H1296ZM1295 -56V40H1297V-56H1295ZM1296 39H1200V41H1296V39Z" fill="#353A40" mask="url(#path-29-inside-14_3045_709)"/>
<mask id="path-31-inside-15_3045_709" fill="white">
<path d="M1296 -56H1392V40H1296V-56Z"/>
</mask>
<path d="M1392 40V41H1393V40H1392ZM1391 -56V40H1393V-56H1391ZM1392 39H1296V41H1392V39Z" fill="#353A40" mask="url(#path-31-inside-15_3045_709)"/>
<mask id="path-33-inside-16_3045_709" fill="white">
<path d="M1392 -56H1488V40H1392V-56Z"/>
</mask>
<path d="M1488 40V41H1489V40H1488ZM1487 -56V40H1489V-56H1487ZM1488 39H1392V41H1488V39Z" fill="#353A40" mask="url(#path-33-inside-16_3045_709)"/>
<mask id="path-35-inside-17_3045_709" fill="white">
<path d="M-48 40H48V136H-48V40Z"/>
</mask>
<path d="M48 136V137H49V136H48ZM47 40V136H49V40H47ZM48 135H-48V137H48V135Z" fill="#353A40" mask="url(#path-35-inside-17_3045_709)"/>
<mask id="path-37-inside-18_3045_709" fill="white">
<path d="M48 40H144V136H48V40Z"/>
</mask>
<path d="M144 136V137H145V136H144ZM143 40V136H145V40H143ZM144 135H48V137H144V135Z" fill="#353A40" mask="url(#path-37-inside-18_3045_709)"/>
<mask id="path-39-inside-19_3045_709" fill="white">
<path d="M144 40H240V136H144V40Z"/>
</mask>
<path d="M240 136V137H241V136H240ZM239 40V136H241V40H239ZM240 135H144V137H240V135Z" fill="#353A40" mask="url(#path-39-inside-19_3045_709)"/>
<mask id="path-41-inside-20_3045_709" fill="white">
<path d="M240 40H336V136H240V40Z"/>
</mask>
<path d="M336 136V137H337V136H336ZM335 40V136H337V40H335ZM336 135H240V137H336V135Z" fill="#353A40" mask="url(#path-41-inside-20_3045_709)"/>
<mask id="path-43-inside-21_3045_709" fill="white">
<path d="M336 40H432V136H336V40Z"/>
</mask>
<path d="M432 136V137H433V136H432ZM431 40V136H433V40H431ZM432 135H336V137H432V135Z" fill="#353A40" mask="url(#path-43-inside-21_3045_709)"/>
<mask id="path-45-inside-22_3045_709" fill="white">
<path d="M432 40H528V136H432V40Z"/>
</mask>
<path d="M528 136V137H529V136H528ZM527 40V136H529V40H527ZM528 135H432V137H528V135Z" fill="#353A40" mask="url(#path-45-inside-22_3045_709)"/>
<mask id="path-47-inside-23_3045_709" fill="white">
<path d="M528 40H624V136H528V40Z"/>
</mask>
<path d="M528 40H624V136H528V40Z" fill="#191C1F"/>
<path d="M624 136V137H625V136H624ZM623 40V136H625V40H623ZM624 135H528V137H624V135Z" fill="#353A40" mask="url(#path-47-inside-23_3045_709)"/>
<mask id="path-49-inside-24_3045_709" fill="white">
<path d="M624 40H720V136H624V40Z"/>
</mask>
<path d="M720 136V137H721V136H720ZM719 40V136H721V40H719ZM720 135H624V137H720V135Z" fill="#353A40" mask="url(#path-49-inside-24_3045_709)"/>
<mask id="path-51-inside-25_3045_709" fill="white">
<path d="M720 40H816V136H720V40Z"/>
</mask>
<path d="M816 136V137H817V136H816ZM815 40V136H817V40H815ZM816 135H720V137H816V135Z" fill="#353A40" mask="url(#path-51-inside-25_3045_709)"/>
<mask id="path-53-inside-26_3045_709" fill="white">
<path d="M816 40H912V136H816V40Z"/>
</mask>
<path d="M912 136V137H913V136H912ZM911 40V136H913V40H911ZM912 135H816V137H912V135Z" fill="#353A40" mask="url(#path-53-inside-26_3045_709)"/>
<mask id="path-55-inside-27_3045_709" fill="white">
<path d="M912 40H1008V136H912V40Z"/>
</mask>
<path d="M1008 136V137H1009V136H1008ZM1007 40V136H1009V40H1007ZM1008 135H912V137H1008V135Z" fill="#353A40" mask="url(#path-55-inside-27_3045_709)"/>
<mask id="path-57-inside-28_3045_709" fill="white">
<path d="M1008 40H1104V136H1008V40Z"/>
</mask>
<path d="M1104 136V137H1105V136H1104ZM1103 40V136H1105V40H1103ZM1104 135H1008V137H1104V135Z" fill="#353A40" mask="url(#path-57-inside-28_3045_709)"/>
<mask id="path-59-inside-29_3045_709" fill="white">
<path d="M1104 40H1200V136H1104V40Z"/>
</mask>
<path d="M1200 136V137H1201V136H1200ZM1199 40V136H1201V40H1199ZM1200 135H1104V137H1200V135Z" fill="#353A40" mask="url(#path-59-inside-29_3045_709)"/>
<mask id="path-61-inside-30_3045_709" fill="white">
<path d="M1200 40H1296V136H1200V40Z"/>
</mask>
<path d="M1296 136V137H1297V136H1296ZM1295 40V136H1297V40H1295ZM1296 135H1200V137H1296V135Z" fill="#353A40" mask="url(#path-61-inside-30_3045_709)"/>
<mask id="path-63-inside-31_3045_709" fill="white">
<path d="M1296 40H1392V136H1296V40Z"/>
</mask>
<path d="M1392 136V137H1393V136H1392ZM1391 40V136H1393V40H1391ZM1392 135H1296V137H1392V135Z" fill="#353A40" mask="url(#path-63-inside-31_3045_709)"/>
<mask id="path-65-inside-32_3045_709" fill="white">
<path d="M1392 40H1488V136H1392V40Z"/>
</mask>
<path d="M1488 136V137H1489V136H1488ZM1487 40V136H1489V40H1487ZM1488 135H1392V137H1488V135Z" fill="#353A40" mask="url(#path-65-inside-32_3045_709)"/>
<mask id="path-67-inside-33_3045_709" fill="white">
<path d="M-48 136H48V232H-48V136Z"/>
</mask>
<path d="M48 232V233H49V232H48ZM47 136V232H49V136H47ZM48 231H-48V233H48V231Z" fill="#353A40" mask="url(#path-67-inside-33_3045_709)"/>
<mask id="path-69-inside-34_3045_709" fill="white">
<path d="M48 136H144V232H48V136Z"/>
</mask>
<path d="M144 232V233H145V232H144ZM143 136V232H145V136H143ZM144 231H48V233H144V231Z" fill="#353A40" mask="url(#path-69-inside-34_3045_709)"/>
<mask id="path-71-inside-35_3045_709" fill="white">
<path d="M144 136H240V232H144V136Z"/>
</mask>
<path d="M240 232V233H241V232H240ZM239 136V232H241V136H239ZM240 231H144V233H240V231Z" fill="#353A40" mask="url(#path-71-inside-35_3045_709)"/>
<mask id="path-73-inside-36_3045_709" fill="white">
<path d="M240 136H336V232H240V136Z"/>
</mask>
<path d="M240 136H336V232H240V136Z" fill="#191C1F"/>
<path d="M336 232V233H337V232H336ZM335 136V232H337V136H335ZM336 231H240V233H336V231Z" fill="#353A40" mask="url(#path-73-inside-36_3045_709)"/>
<mask id="path-75-inside-37_3045_709" fill="white">
<path d="M336 136H432V232H336V136Z"/>
</mask>
<path d="M432 232V233H433V232H432ZM431 136V232H433V136H431ZM432 231H336V233H432V231Z" fill="#353A40" mask="url(#path-75-inside-37_3045_709)"/>
<mask id="path-77-inside-38_3045_709" fill="white">
<path d="M432 136H528V232H432V136Z"/>
</mask>
<path d="M528 232V233H529V232H528ZM527 136V232H529V136H527ZM528 231H432V233H528V231Z" fill="#353A40" mask="url(#path-77-inside-38_3045_709)"/>
<mask id="path-79-inside-39_3045_709" fill="white">
<path d="M528 136H624V232H528V136Z"/>
</mask>
<path d="M624 232V233H625V232H624ZM623 136V232H625V136H623ZM624 231H528V233H624V231Z" fill="#353A40" mask="url(#path-79-inside-39_3045_709)"/>
<mask id="path-81-inside-40_3045_709" fill="white">
<path d="M624 136H720V232H624V136Z"/>
</mask>
<path d="M720 232V233H721V232H720ZM719 136V232H721V136H719ZM720 231H624V233H720V231Z" fill="#353A40" mask="url(#path-81-inside-40_3045_709)"/>
<mask id="path-83-inside-41_3045_709" fill="white">
<path d="M720 136H816V232H720V136Z"/>
</mask>
<path d="M816 232V233H817V232H816ZM815 136V232H817V136H815ZM816 231H720V233H816V231Z" fill="#353A40" mask="url(#path-83-inside-41_3045_709)"/>
<mask id="path-85-inside-42_3045_709" fill="white">
<path d="M816 136H912V232H816V136Z"/>
</mask>
<path d="M816 136H912V232H816V136Z" fill="#191C1F"/>
<path d="M912 232V233H913V232H912ZM911 136V232H913V136H911ZM912 231H816V233H912V231Z" fill="#353A40" mask="url(#path-85-inside-42_3045_709)"/>
<mask id="path-87-inside-43_3045_709" fill="white">
<path d="M912 136H1008V232H912V136Z"/>
</mask>
<path d="M1008 232V233H1009V232H1008ZM1007 136V232H1009V136H1007ZM1008 231H912V233H1008V231Z" fill="#353A40" mask="url(#path-87-inside-43_3045_709)"/>
<mask id="path-89-inside-44_3045_709" fill="white">
<path d="M1008 136H1104V232H1008V136Z"/>
</mask>
<path d="M1104 232V233H1105V232H1104ZM1103 136V232H1105V136H1103ZM1104 231H1008V233H1104V231Z" fill="#353A40" mask="url(#path-89-inside-44_3045_709)"/>
<mask id="path-91-inside-45_3045_709" fill="white">
<path d="M1104 136H1200V232H1104V136Z"/>
</mask>
<path d="M1200 232V233H1201V232H1200ZM1199 136V232H1201V136H1199ZM1200 231H1104V233H1200V231Z" fill="#353A40" mask="url(#path-91-inside-45_3045_709)"/>
<mask id="path-93-inside-46_3045_709" fill="white">
<path d="M1200 136H1296V232H1200V136Z"/>
</mask>
<path d="M1296 232V233H1297V232H1296ZM1295 136V232H1297V136H1295ZM1296 231H1200V233H1296V231Z" fill="#353A40" mask="url(#path-93-inside-46_3045_709)"/>
<mask id="path-95-inside-47_3045_709" fill="white">
<path d="M1296 136H1392V232H1296V136Z"/>
</mask>
<path d="M1392 232V233H1393V232H1392ZM1391 136V232H1393V136H1391ZM1392 231H1296V233H1392V231Z" fill="#353A40" mask="url(#path-95-inside-47_3045_709)"/>
<mask id="path-97-inside-48_3045_709" fill="white">
<path d="M1392 136H1488V232H1392V136Z"/>
</mask>
<path d="M1488 232V233H1489V232H1488ZM1487 136V232H1489V136H1487ZM1488 231H1392V233H1488V231Z" fill="#353A40" mask="url(#path-97-inside-48_3045_709)"/>
<mask id="path-99-inside-49_3045_709" fill="white">
<path d="M-48 232H48V328H-48V232Z"/>
</mask>
<path d="M48 328V329H49V328H48ZM47 232V328H49V232H47ZM48 327H-48V329H48V327Z" fill="#353A40" mask="url(#path-99-inside-49_3045_709)"/>
<mask id="path-101-inside-50_3045_709" fill="white">
<path d="M48 232H144V328H48V232Z"/>
</mask>
<path d="M48 232H144V328H48V232Z" fill="#191C1F"/>
<path d="M144 328V329H145V328H144ZM143 232V328H145V232H143ZM144 327H48V329H144V327Z" fill="#353A40" mask="url(#path-101-inside-50_3045_709)"/>
<mask id="path-103-inside-51_3045_709" fill="white">
<path d="M144 232H240V328H144V232Z"/>
</mask>
<path d="M240 328V329H241V328H240ZM239 232V328H241V232H239ZM240 327H144V329H240V327Z" fill="#353A40" mask="url(#path-103-inside-51_3045_709)"/>
<mask id="path-105-inside-52_3045_709" fill="white">
<path d="M240 232H336V328H240V232Z"/>
</mask>
<path d="M336 328V329H337V328H336ZM335 232V328H337V232H335ZM336 327H240V329H336V327Z" fill="#353A40" mask="url(#path-105-inside-52_3045_709)"/>
<mask id="path-107-inside-53_3045_709" fill="white">
<path d="M336 232H432V328H336V232Z"/>
</mask>
<path d="M432 328V329H433V328H432ZM431 232V328H433V232H431ZM432 327H336V329H432V327Z" fill="#353A40" mask="url(#path-107-inside-53_3045_709)"/>
<mask id="path-109-inside-54_3045_709" fill="white">
<path d="M432 232H528V328H432V232Z"/>
</mask>
<path d="M528 328V329H529V328H528ZM527 232V328H529V232H527ZM528 327H432V329H528V327Z" fill="#353A40" mask="url(#path-109-inside-54_3045_709)"/>
<mask id="path-111-inside-55_3045_709" fill="white">
<path d="M528 232H624V328H528V232Z"/>
</mask>
<path d="M624 328V329H625V328H624ZM623 232V328H625V232H623ZM624 327H528V329H624V327Z" fill="#353A40" mask="url(#path-111-inside-55_3045_709)"/>
<mask id="path-113-inside-56_3045_709" fill="white">
<path d="M624 232H720V328H624V232Z"/>
</mask>
<path d="M720 328V329H721V328H720ZM719 232V328H721V232H719ZM720 327H624V329H720V327Z" fill="#353A40" mask="url(#path-113-inside-56_3045_709)"/>
<mask id="path-115-inside-57_3045_709" fill="white">
<path d="M720 232H816V328H720V232Z"/>
</mask>
<path d="M816 328V329H817V328H816ZM815 232V328H817V232H815ZM816 327H720V329H816V327Z" fill="#353A40" mask="url(#path-115-inside-57_3045_709)"/>
<mask id="path-117-inside-58_3045_709" fill="white">
<path d="M816 232H912V328H816V232Z"/>
</mask>
<path d="M912 328V329H913V328H912ZM911 232V328H913V232H911ZM912 327H816V329H912V327Z" fill="#353A40" mask="url(#path-117-inside-58_3045_709)"/>
<mask id="path-119-inside-59_3045_709" fill="white">
<path d="M912 232H1008V328H912V232Z"/>
</mask>
<path d="M1008 328V329H1009V328H1008ZM1007 232V328H1009V232H1007ZM1008 327H912V329H1008V327Z" fill="#353A40" mask="url(#path-119-inside-59_3045_709)"/>
<mask id="path-121-inside-60_3045_709" fill="white">
<path d="M1008 232H1104V328H1008V232Z"/>
</mask>
<path d="M1104 328V329H1105V328H1104ZM1103 232V328H1105V232H1103ZM1104 327H1008V329H1104V327Z" fill="#353A40" mask="url(#path-121-inside-60_3045_709)"/>
<mask id="path-123-inside-61_3045_709" fill="white">
<path d="M1104 232H1200V328H1104V232Z"/>
</mask>
<path d="M1200 328V329H1201V328H1200ZM1199 232V328H1201V232H1199ZM1200 327H1104V329H1200V327Z" fill="#353A40" mask="url(#path-123-inside-61_3045_709)"/>
<mask id="path-125-inside-62_3045_709" fill="white">
<path d="M1200 232H1296V328H1200V232Z"/>
</mask>
<path d="M1296 328V329H1297V328H1296ZM1295 232V328H1297V232H1295ZM1296 327H1200V329H1296V327Z" fill="#353A40" mask="url(#path-125-inside-62_3045_709)"/>
<mask id="path-127-inside-63_3045_709" fill="white">
<path d="M1296 232H1392V328H1296V232Z"/>
</mask>
<path d="M1296 232H1392V328H1296V232Z" fill="#191C1F"/>
<path d="M1392 328V329H1393V328H1392ZM1391 232V328H1393V232H1391ZM1392 327H1296V329H1392V327Z" fill="#353A40" mask="url(#path-127-inside-63_3045_709)"/>
<mask id="path-129-inside-64_3045_709" fill="white">
<path d="M1392 232H1488V328H1392V232Z"/>
</mask>
<path d="M1488 328V329H1489V328H1488ZM1487 232V328H1489V232H1487ZM1488 327H1392V329H1488V327Z" fill="#353A40" mask="url(#path-129-inside-64_3045_709)"/>
<mask id="path-131-inside-65_3045_709" fill="white">
<path d="M-48 328H48V424H-48V328Z"/>
</mask>
<path d="M48 424V425H49V424H48ZM47 328V424H49V328H47ZM48 423H-48V425H48V423Z" fill="#353A40" mask="url(#path-131-inside-65_3045_709)"/>
<mask id="path-133-inside-66_3045_709" fill="white">
<path d="M48 328H144V424H48V328Z"/>
</mask>
<path d="M144 424V425H145V424H144ZM143 328V424H145V328H143ZM144 423H48V425H144V423Z" fill="#353A40" mask="url(#path-133-inside-66_3045_709)"/>
<mask id="path-135-inside-67_3045_709" fill="white">
<path d="M144 328H240V424H144V328Z"/>
</mask>
<path d="M240 424V425H241V424H240ZM239 328V424H241V328H239ZM240 423H144V425H240V423Z" fill="#353A40" mask="url(#path-135-inside-67_3045_709)"/>
<mask id="path-137-inside-68_3045_709" fill="white">
<path d="M240 328H336V424H240V328Z"/>
</mask>
<path d="M336 424V425H337V424H336ZM335 328V424H337V328H335ZM336 423H240V425H336V423Z" fill="#353A40" mask="url(#path-137-inside-68_3045_709)"/>
<mask id="path-139-inside-69_3045_709" fill="white">
<path d="M336 328H432V424H336V328Z"/>
</mask>
<path d="M432 424V425H433V424H432ZM431 328V424H433V328H431ZM432 423H336V425H432V423Z" fill="#353A40" mask="url(#path-139-inside-69_3045_709)"/>
<mask id="path-141-inside-70_3045_709" fill="white">
<path d="M432 328H528V424H432V328Z"/>
</mask>
<path d="M528 424V425H529V424H528ZM527 328V424H529V328H527ZM528 423H432V425H528V423Z" fill="#353A40" mask="url(#path-141-inside-70_3045_709)"/>
<mask id="path-143-inside-71_3045_709" fill="white">
<path d="M528 328H624V424H528V328Z"/>
</mask>
<path d="M528 328H624V424H528V328Z" fill="#191C1F"/>
<path d="M624 424V425H625V424H624ZM623 328V424H625V328H623ZM624 423H528V425H624V423Z" fill="#353A40" mask="url(#path-143-inside-71_3045_709)"/>
<mask id="path-145-inside-72_3045_709" fill="white">
<path d="M624 328H720V424H624V328Z"/>
</mask>
<path d="M720 424V425H721V424H720ZM719 328V424H721V328H719ZM720 423H624V425H720V423Z" fill="#353A40" mask="url(#path-145-inside-72_3045_709)"/>
<mask id="path-147-inside-73_3045_709" fill="white">
<path d="M720 328H816V424H720V328Z"/>
</mask>
<path d="M816 424V425H817V424H816ZM815 328V424H817V328H815ZM816 423H720V425H816V423Z" fill="#353A40" mask="url(#path-147-inside-73_3045_709)"/>
<mask id="path-149-inside-74_3045_709" fill="white">
<path d="M816 328H912V424H816V328Z"/>
</mask>
<path d="M912 424V425H913V424H912ZM911 328V424H913V328H911ZM912 423H816V425H912V423Z" fill="#353A40" mask="url(#path-149-inside-74_3045_709)"/>
<mask id="path-151-inside-75_3045_709" fill="white">
<path d="M912 328H1008V424H912V328Z"/>
</mask>
<path d="M1008 424V425H1009V424H1008ZM1007 328V424H1009V328H1007ZM1008 423H912V425H1008V423Z" fill="#353A40" mask="url(#path-151-inside-75_3045_709)"/>
<mask id="path-153-inside-76_3045_709" fill="white">
<path d="M1008 328H1104V424H1008V328Z"/>
</mask>
<path d="M1104 424V425H1105V424H1104ZM1103 328V424H1105V328H1103ZM1104 423H1008V425H1104V423Z" fill="#353A40" mask="url(#path-153-inside-76_3045_709)"/>
<mask id="path-155-inside-77_3045_709" fill="white">
<path d="M1104 328H1200V424H1104V328Z"/>
</mask>
<path d="M1104 328H1200V424H1104V328Z" fill="#191C1F"/>
<path d="M1200 424V425H1201V424H1200ZM1199 328V424H1201V328H1199ZM1200 423H1104V425H1200V423Z" fill="#353A40" mask="url(#path-155-inside-77_3045_709)"/>
<mask id="path-157-inside-78_3045_709" fill="white">
<path d="M1200 328H1296V424H1200V328Z"/>
</mask>
<path d="M1296 424V425H1297V424H1296ZM1295 328V424H1297V328H1295ZM1296 423H1200V425H1296V423Z" fill="#353A40" mask="url(#path-157-inside-78_3045_709)"/>
<mask id="path-159-inside-79_3045_709" fill="white">
<path d="M1296 328H1392V424H1296V328Z"/>
</mask>
<path d="M1392 424V425H1393V424H1392ZM1391 328V424H1393V328H1391ZM1392 423H1296V425H1392V423Z" fill="#353A40" mask="url(#path-159-inside-79_3045_709)"/>
<mask id="path-161-inside-80_3045_709" fill="white">
<path d="M1392 328H1488V424H1392V328Z"/>
</mask>
<path d="M1488 424V425H1489V424H1488ZM1487 328V424H1489V328H1487ZM1488 423H1392V425H1488V423Z" fill="#353A40" mask="url(#path-161-inside-80_3045_709)"/>
<mask id="path-163-inside-81_3045_709" fill="white">
<path d="M-48 424H48V520H-48V424Z"/>
</mask>
<path d="M48 520V521H49V520H48ZM47 424V520H49V424H47ZM48 519H-48V521H48V519Z" fill="#353A40" mask="url(#path-163-inside-81_3045_709)"/>
<mask id="path-165-inside-82_3045_709" fill="white">
<path d="M48 424H144V520H48V424Z"/>
</mask>
<path d="M144 520V521H145V520H144ZM143 424V520H145V424H143ZM144 519H48V521H144V519Z" fill="#353A40" mask="url(#path-165-inside-82_3045_709)"/>
<mask id="path-167-inside-83_3045_709" fill="white">
<path d="M144 424H240V520H144V424Z"/>
</mask>
<path d="M240 520V521H241V520H240ZM239 424V520H241V424H239ZM240 519H144V521H240V519Z" fill="#353A40" mask="url(#path-167-inside-83_3045_709)"/>
<mask id="path-169-inside-84_3045_709" fill="white">
<path d="M240 424H336V520H240V424Z"/>
</mask>
<path d="M240 424H336V520H240V424Z" fill="#191C1F"/>
<path d="M336 520V521H337V520H336ZM335 424V520H337V424H335ZM336 519H240V521H336V519Z" fill="#353A40" mask="url(#path-169-inside-84_3045_709)"/>
<mask id="path-171-inside-85_3045_709" fill="white">
<path d="M336 424H432V520H336V424Z"/>
</mask>
<path d="M432 520V521H433V520H432ZM431 424V520H433V424H431ZM432 519H336V521H432V519Z" fill="#353A40" mask="url(#path-171-inside-85_3045_709)"/>
<mask id="path-173-inside-86_3045_709" fill="white">
<path d="M432 424H528V520H432V424Z"/>
</mask>
<path d="M528 520V521H529V520H528ZM527 424V520H529V424H527ZM528 519H432V521H528V519Z" fill="#353A40" mask="url(#path-173-inside-86_3045_709)"/>
<mask id="path-175-inside-87_3045_709" fill="white">
<path d="M528 424H624V520H528V424Z"/>
</mask>
<path d="M624 520V521H625V520H624ZM623 424V520H625V424H623ZM624 519H528V521H624V519Z" fill="#353A40" mask="url(#path-175-inside-87_3045_709)"/>
<mask id="path-177-inside-88_3045_709" fill="white">
<path d="M624 424H720V520H624V424Z"/>
</mask>
<path d="M720 520V521H721V520H720ZM719 424V520H721V424H719ZM720 519H624V521H720V519Z" fill="#353A40" mask="url(#path-177-inside-88_3045_709)"/>
<mask id="path-179-inside-89_3045_709" fill="white">
<path d="M720 424H816V520H720V424Z"/>
</mask>
<path d="M816 520V521H817V520H816ZM815 424V520H817V424H815ZM816 519H720V521H816V519Z" fill="#353A40" mask="url(#path-179-inside-89_3045_709)"/>
<mask id="path-181-inside-90_3045_709" fill="white">
<path d="M816 424H912V520H816V424Z"/>
</mask>
<path d="M816 424H912V520H816V424Z" fill="#191C1F"/>
<path d="M912 520V521H913V520H912ZM911 424V520H913V424H911ZM912 519H816V521H912V519Z" fill="#353A40" mask="url(#path-181-inside-90_3045_709)"/>
<mask id="path-183-inside-91_3045_709" fill="white">
<path d="M912 424H1008V520H912V424Z"/>
</mask>
<path d="M1008 520V521H1009V520H1008ZM1007 424V520H1009V424H1007ZM1008 519H912V521H1008V519Z" fill="#353A40" mask="url(#path-183-inside-91_3045_709)"/>
<mask id="path-185-inside-92_3045_709" fill="white">
<path d="M1008 424H1104V520H1008V424Z"/>
</mask>
<path d="M1104 520V521H1105V520H1104ZM1103 424V520H1105V424H1103ZM1104 519H1008V521H1104V519Z" fill="#353A40" mask="url(#path-185-inside-92_3045_709)"/>
<mask id="path-187-inside-93_3045_709" fill="white">
<path d="M1104 424H1200V520H1104V424Z"/>
</mask>
<path d="M1200 520V521H1201V520H1200ZM1199 424V520H1201V424H1199ZM1200 519H1104V521H1200V519Z" fill="#353A40" mask="url(#path-187-inside-93_3045_709)"/>
<mask id="path-189-inside-94_3045_709" fill="white">
<path d="M1200 424H1296V520H1200V424Z"/>
</mask>
<path d="M1296 520V521H1297V520H1296ZM1295 424V520H1297V424H1295ZM1296 519H1200V521H1296V519Z" fill="#353A40" mask="url(#path-189-inside-94_3045_709)"/>
<mask id="path-191-inside-95_3045_709" fill="white">
<path d="M1296 424H1392V520H1296V424Z"/>
</mask>
<path d="M1392 520V521H1393V520H1392ZM1391 424V520H1393V424H1391ZM1392 519H1296V521H1392V519Z" fill="#353A40" mask="url(#path-191-inside-95_3045_709)"/>
<mask id="path-193-inside-96_3045_709" fill="white">
<path d="M1392 424H1488V520H1392V424Z"/>
</mask>
<path d="M1488 520V521H1489V520H1488ZM1487 424V520H1489V424H1487ZM1488 519H1392V521H1488V519Z" fill="#353A40" mask="url(#path-193-inside-96_3045_709)"/>
<mask id="path-195-inside-97_3045_709" fill="white">
<path d="M-48 520H48V616H-48V520Z"/>
</mask>
<path d="M48 616V617H49V616H48ZM47 520V616H49V520H47ZM48 615H-48V617H48V615Z" fill="#353A40" mask="url(#path-195-inside-97_3045_709)"/>
<mask id="path-197-inside-98_3045_709" fill="white">
<path d="M48 520H144V616H48V520Z"/>
</mask>
<path d="M144 616V617H145V616H144ZM143 520V616H145V520H143ZM144 615H48V617H144V615Z" fill="#353A40" mask="url(#path-197-inside-98_3045_709)"/>
<mask id="path-199-inside-99_3045_709" fill="white">
<path d="M144 520H240V616H144V520Z"/>
</mask>
<path d="M240 616V617H241V616H240ZM239 520V616H241V520H239ZM240 615H144V617H240V615Z" fill="#353A40" mask="url(#path-199-inside-99_3045_709)"/>
<mask id="path-201-inside-100_3045_709" fill="white">
<path d="M240 520H336V616H240V520Z"/>
</mask>
<path d="M336 616V617H337V616H336ZM335 520V616H337V520H335ZM336 615H240V617H336V615Z" fill="#353A40" mask="url(#path-201-inside-100_3045_709)"/>
<mask id="path-203-inside-101_3045_709" fill="white">
<path d="M336 520H432V616H336V520Z"/>
</mask>
<path d="M432 616V617H433V616H432ZM431 520V616H433V520H431ZM432 615H336V617H432V615Z" fill="#353A40" mask="url(#path-203-inside-101_3045_709)"/>
<mask id="path-205-inside-102_3045_709" fill="white">
<path d="M432 520H528V616H432V520Z"/>
</mask>
<path d="M528 616V617H529V616H528ZM527 520V616H529V520H527ZM528 615H432V617H528V615Z" fill="#353A40" mask="url(#path-205-inside-102_3045_709)"/>
<mask id="path-207-inside-103_3045_709" fill="white">
<path d="M528 520H624V616H528V520Z"/>
</mask>
<path d="M624 616V617H625V616H624ZM623 520V616H625V520H623ZM624 615H528V617H624V615Z" fill="#353A40" mask="url(#path-207-inside-103_3045_709)"/>
<mask id="path-209-inside-104_3045_709" fill="white">
<path d="M624 520H720V616H624V520Z"/>
</mask>
<path d="M720 616V617H721V616H720ZM719 520V616H721V520H719ZM720 615H624V617H720V615Z" fill="#353A40" mask="url(#path-209-inside-104_3045_709)"/>
<mask id="path-211-inside-105_3045_709" fill="white">
<path d="M720 520H816V616H720V520Z"/>
</mask>
<path d="M816 616V617H817V616H816ZM815 520V616H817V520H815ZM816 615H720V617H816V615Z" fill="#353A40" mask="url(#path-211-inside-105_3045_709)"/>
<mask id="path-213-inside-106_3045_709" fill="white">
<path d="M816 520H912V616H816V520Z"/>
</mask>
<path d="M912 616V617H913V616H912ZM911 520V616H913V520H911ZM912 615H816V617H912V615Z" fill="#353A40" mask="url(#path-213-inside-106_3045_709)"/>
<mask id="path-215-inside-107_3045_709" fill="white">
<path d="M912 520H1008V616H912V520Z"/>
</mask>
<path d="M1008 616V617H1009V616H1008ZM1007 520V616H1009V520H1007ZM1008 615H912V617H1008V615Z" fill="#353A40" mask="url(#path-215-inside-107_3045_709)"/>
<mask id="path-217-inside-108_3045_709" fill="white">
<path d="M1008 520H1104V616H1008V520Z"/>
</mask>
<path d="M1104 616V617H1105V616H1104ZM1103 520V616H1105V520H1103ZM1104 615H1008V617H1104V615Z" fill="#353A40" mask="url(#path-217-inside-108_3045_709)"/>
<mask id="path-219-inside-109_3045_709" fill="white">
<path d="M1104 520H1200V616H1104V520Z"/>
</mask>
<path d="M1200 616V617H1201V616H1200ZM1199 520V616H1201V520H1199ZM1200 615H1104V617H1200V615Z" fill="#353A40" mask="url(#path-219-inside-109_3045_709)"/>
<mask id="path-221-inside-110_3045_709" fill="white">
<path d="M1200 520H1296V616H1200V520Z"/>
</mask>
<path d="M1296 616V617H1297V616H1296ZM1295 520V616H1297V520H1295ZM1296 615H1200V617H1296V615Z" fill="#353A40" mask="url(#path-221-inside-110_3045_709)"/>
<mask id="path-223-inside-111_3045_709" fill="white">
<path d="M1296 520H1392V616H1296V520Z"/>
</mask>
<path d="M1392 616V617H1393V616H1392ZM1391 520V616H1393V520H1391ZM1392 615H1296V617H1392V615Z" fill="#353A40" mask="url(#path-223-inside-111_3045_709)"/>
<mask id="path-225-inside-112_3045_709" fill="white">
<path d="M1392 520H1488V616H1392V520Z"/>
</mask>
<path d="M1392 520H1488V616H1392V520Z" fill="#191C1F"/>
<path d="M1488 616V617H1489V616H1488ZM1487 520V616H1489V520H1487ZM1488 615H1392V617H1488V615Z" fill="#353A40" mask="url(#path-225-inside-112_3045_709)"/>
<mask id="path-227-inside-113_3045_709" fill="white">
<path d="M-48 616H48V712H-48V616Z"/>
</mask>
<path d="M48 712V713H49V712H48ZM47 616V712H49V616H47ZM48 711H-48V713H48V711Z" fill="#353A40" mask="url(#path-227-inside-113_3045_709)"/>
<mask id="path-229-inside-114_3045_709" fill="white">
<path d="M48 616H144V712H48V616Z"/>
</mask>
<path d="M144 712V713H145V712H144ZM143 616V712H145V616H143ZM144 711H48V713H144V711Z" fill="#353A40" mask="url(#path-229-inside-114_3045_709)"/>
<mask id="path-231-inside-115_3045_709" fill="white">
<path d="M144 616H240V712H144V616Z"/>
</mask>
<path d="M240 712V713H241V712H240ZM239 616V712H241V616H239ZM240 711H144V713H240V711Z" fill="#353A40" mask="url(#path-231-inside-115_3045_709)"/>
<mask id="path-233-inside-116_3045_709" fill="white">
<path d="M240 616H336V712H240V616Z"/>
</mask>
<path d="M336 712V713H337V712H336ZM335 616V712H337V616H335ZM336 711H240V713H336V711Z" fill="#353A40" mask="url(#path-233-inside-116_3045_709)"/>
<mask id="path-235-inside-117_3045_709" fill="white">
<path d="M336 616H432V712H336V616Z"/>
</mask>
<path d="M336 616H432V712H336V616Z" fill="#191C1F"/>
<path d="M432 712V713H433V712H432ZM431 616V712H433V616H431ZM432 711H336V713H432V711Z" fill="#353A40" mask="url(#path-235-inside-117_3045_709)"/>
<mask id="path-237-inside-118_3045_709" fill="white">
<path d="M432 616H528V712H432V616Z"/>
</mask>
<path d="M528 712V713H529V712H528ZM527 616V712H529V616H527ZM528 711H432V713H528V711Z" fill="#353A40" mask="url(#path-237-inside-118_3045_709)"/>
<mask id="path-239-inside-119_3045_709" fill="white">
<path d="M528 616H624V712H528V616Z"/>
</mask>
<path d="M624 712V713H625V712H624ZM623 616V712H625V616H623ZM624 711H528V713H624V711Z" fill="#353A40" mask="url(#path-239-inside-119_3045_709)"/>
<mask id="path-241-inside-120_3045_709" fill="white">
<path d="M624 616H720V712H624V616Z"/>
</mask>
<path d="M720 712V713H721V712H720ZM719 616V712H721V616H719ZM720 711H624V713H720V711Z" fill="#353A40" mask="url(#path-241-inside-120_3045_709)"/>
<mask id="path-243-inside-121_3045_709" fill="white">
<path d="M720 616H816V712H720V616Z"/>
</mask>
<path d="M720 616H816V712H720V616Z" fill="#191C1F"/>
<path d="M816 712V713H817V712H816ZM815 616V712H817V616H815ZM816 711H720V713H816V711Z" fill="#353A40" mask="url(#path-243-inside-121_3045_709)"/>
<mask id="path-245-inside-122_3045_709" fill="white">
<path d="M816 616H912V712H816V616Z"/>
</mask>
<path d="M912 712V713H913V712H912ZM911 616V712H913V616H911ZM912 711H816V713H912V711Z" fill="#353A40" mask="url(#path-245-inside-122_3045_709)"/>
<mask id="path-247-inside-123_3045_709" fill="white">
<path d="M912 616H1008V712H912V616Z"/>
</mask>
<path d="M1008 712V713H1009V712H1008ZM1007 616V712H1009V616H1007ZM1008 711H912V713H1008V711Z" fill="#353A40" mask="url(#path-247-inside-123_3045_709)"/>
<mask id="path-249-inside-124_3045_709" fill="white">
<path d="M1008 616H1104V712H1008V616Z"/>
</mask>
<path d="M1104 712V713H1105V712H1104ZM1103 616V712H1105V616H1103ZM1104 711H1008V713H1104V711Z" fill="#353A40" mask="url(#path-249-inside-124_3045_709)"/>
<mask id="path-251-inside-125_3045_709" fill="white">
<path d="M1104 616H1200V712H1104V616Z"/>
</mask>
<path d="M1200 712V713H1201V712H1200ZM1199 616V712H1201V616H1199ZM1200 711H1104V713H1200V711Z" fill="#353A40" mask="url(#path-251-inside-125_3045_709)"/>
<mask id="path-253-inside-126_3045_709" fill="white">
<path d="M1200 616H1296V712H1200V616Z"/>
</mask>
<path d="M1296 712V713H1297V712H1296ZM1295 616V712H1297V616H1295ZM1296 711H1200V713H1296V711Z" fill="#353A40" mask="url(#path-253-inside-126_3045_709)"/>
<mask id="path-255-inside-127_3045_709" fill="white">
<path d="M1296 616H1392V712H1296V616Z"/>
</mask>
<path d="M1392 712V713H1393V712H1392ZM1391 616V712H1393V616H1391ZM1392 711H1296V713H1392V711Z" fill="#353A40" mask="url(#path-255-inside-127_3045_709)"/>
<mask id="path-257-inside-128_3045_709" fill="white">
<path d="M1392 616H1488V712H1392V616Z"/>
</mask>
<path d="M1488 712V713H1489V712H1488ZM1487 616V712H1489V616H1487ZM1488 711H1392V713H1488V711Z" fill="#353A40" mask="url(#path-257-inside-128_3045_709)"/>
<mask id="path-259-inside-129_3045_709" fill="white">
<path d="M-48 712H48V808H-48V712Z"/>
</mask>
<path d="M-48 712H48V808H-48V712Z" fill="#191C1F"/>
<path d="M48 808V809H49V808H48ZM47 712V808H49V712H47ZM48 807H-48V809H48V807Z" fill="#353A40" mask="url(#path-259-inside-129_3045_709)"/>
<mask id="path-261-inside-130_3045_709" fill="white">
<path d="M48 712H144V808H48V712Z"/>
</mask>
<path d="M144 808V809H145V808H144ZM143 712V808H145V712H143ZM144 807H48V809H144V807Z" fill="#353A40" mask="url(#path-261-inside-130_3045_709)"/>
<mask id="path-263-inside-131_3045_709" fill="white">
<path d="M144 712H240V808H144V712Z"/>
</mask>
<path d="M240 808V809H241V808H240ZM239 712V808H241V712H239ZM240 807H144V809H240V807Z" fill="#353A40" mask="url(#path-263-inside-131_3045_709)"/>
<mask id="path-265-inside-132_3045_709" fill="white">
<path d="M240 712H336V808H240V712Z"/>
</mask>
<path d="M336 808V809H337V808H336ZM335 712V808H337V712H335ZM336 807H240V809H336V807Z" fill="#353A40" mask="url(#path-265-inside-132_3045_709)"/>
<mask id="path-267-inside-133_3045_709" fill="white">
<path d="M336 712H432V808H336V712Z"/>
</mask>
<path d="M432 808V809H433V808H432ZM431 712V808H433V712H431ZM432 807H336V809H432V807Z" fill="#353A40" mask="url(#path-267-inside-133_3045_709)"/>
<mask id="path-269-inside-134_3045_709" fill="white">
<path d="M432 712H528V808H432V712Z"/>
</mask>
<path d="M528 808V809H529V808H528ZM527 712V808H529V712H527ZM528 807H432V809H528V807Z" fill="#353A40" mask="url(#path-269-inside-134_3045_709)"/>
<mask id="path-271-inside-135_3045_709" fill="white">
<path d="M528 712H624V808H528V712Z"/>
</mask>
<path d="M624 808V809H625V808H624ZM623 712V808H625V712H623ZM624 807H528V809H624V807Z" fill="#353A40" mask="url(#path-271-inside-135_3045_709)"/>
<mask id="path-273-inside-136_3045_709" fill="white">
<path d="M624 712H720V808H624V712Z"/>
</mask>
<path d="M720 808V809H721V808H720ZM719 712V808H721V712H719ZM720 807H624V809H720V807Z" fill="#353A40" mask="url(#path-273-inside-136_3045_709)"/>
<mask id="path-275-inside-137_3045_709" fill="white">
<path d="M720 712H816V808H720V712Z"/>
</mask>
<path d="M816 808V809H817V808H816ZM815 712V808H817V712H815ZM816 807H720V809H816V807Z" fill="#353A40" mask="url(#path-275-inside-137_3045_709)"/>
<mask id="path-277-inside-138_3045_709" fill="white">
<path d="M816 712H912V808H816V712Z"/>
</mask>
<path d="M912 808V809H913V808H912ZM911 712V808H913V712H911ZM912 807H816V809H912V807Z" fill="#353A40" mask="url(#path-277-inside-138_3045_709)"/>
<mask id="path-279-inside-139_3045_709" fill="white">
<path d="M912 712H1008V808H912V712Z"/>
</mask>
<path d="M1008 808V809H1009V808H1008ZM1007 712V808H1009V712H1007ZM1008 807H912V809H1008V807Z" fill="#353A40" mask="url(#path-279-inside-139_3045_709)"/>
<mask id="path-281-inside-140_3045_709" fill="white">
<path d="M1008 712H1104V808H1008V712Z"/>
</mask>
<path d="M1104 808V809H1105V808H1104ZM1103 712V808H1105V712H1103ZM1104 807H1008V809H1104V807Z" fill="#353A40" mask="url(#path-281-inside-140_3045_709)"/>
<mask id="path-283-inside-141_3045_709" fill="white">
<path d="M1104 712H1200V808H1104V712Z"/>
</mask>
<path d="M1104 712H1200V808H1104V712Z" fill="#191C1F"/>
<path d="M1200 808V809H1201V808H1200ZM1199 712V808H1201V712H1199ZM1200 807H1104V809H1200V807Z" fill="#353A40" mask="url(#path-283-inside-141_3045_709)"/>
<mask id="path-285-inside-142_3045_709" fill="white">
<path d="M1200 712H1296V808H1200V712Z"/>
</mask>
<path d="M1296 808V809H1297V808H1296ZM1295 712V808H1297V712H1295ZM1296 807H1200V809H1296V807Z" fill="#353A40" mask="url(#path-285-inside-142_3045_709)"/>
<mask id="path-287-inside-143_3045_709" fill="white">
<path d="M1296 712H1392V808H1296V712Z"/>
</mask>
<path d="M1392 808V809H1393V808H1392ZM1391 712V808H1393V712H1391ZM1392 807H1296V809H1392V807Z" fill="#353A40" mask="url(#path-287-inside-143_3045_709)"/>
<mask id="path-289-inside-144_3045_709" fill="white">
<path d="M1392 712H1488V808H1392V712Z"/>
</mask>
<path d="M1488 808V809H1489V808H1488ZM1487 712V808H1489V712H1487ZM1488 807H1392V809H1488V807Z" fill="#353A40" mask="url(#path-289-inside-144_3045_709)"/>
<mask id="path-291-inside-145_3045_709" fill="white">
<path d="M-48 808H48V904H-48V808Z"/>
</mask>
<path d="M48 904V905H49V904H48ZM47 808V904H49V808H47ZM48 903H-48V905H48V903Z" fill="#353A40" mask="url(#path-291-inside-145_3045_709)"/>
<mask id="path-293-inside-146_3045_709" fill="white">
<path d="M48 808H144V904H48V808Z"/>
</mask>
<path d="M144 904V905H145V904H144ZM143 808V904H145V808H143ZM144 903H48V905H144V903Z" fill="#353A40" mask="url(#path-293-inside-146_3045_709)"/>
<mask id="path-295-inside-147_3045_709" fill="white">
<path d="M144 808H240V904H144V808Z"/>
</mask>
<path d="M240 904V905H241V904H240ZM239 808V904H241V808H239ZM240 903H144V905H240V903Z" fill="#353A40" mask="url(#path-295-inside-147_3045_709)"/>
<mask id="path-297-inside-148_3045_709" fill="white">
<path d="M240 808H336V904H240V808Z"/>
</mask>
<path d="M336 904V905H337V904H336ZM335 808V904H337V808H335ZM336 903H240V905H336V903Z" fill="#353A40" mask="url(#path-297-inside-148_3045_709)"/>
<mask id="path-299-inside-149_3045_709" fill="white">
<path d="M336 808H432V904H336V808Z"/>
</mask>
<path d="M432 904V905H433V904H432ZM431 808V904H433V808H431ZM432 903H336V905H432V903Z" fill="#353A40" mask="url(#path-299-inside-149_3045_709)"/>
<mask id="path-301-inside-150_3045_709" fill="white">
<path d="M432 808H528V904H432V808Z"/>
</mask>
<path d="M528 904V905H529V904H528ZM527 808V904H529V808H527ZM528 903H432V905H528V903Z" fill="#353A40" mask="url(#path-301-inside-150_3045_709)"/>
<mask id="path-303-inside-151_3045_709" fill="white">
<path d="M528 808H624V904H528V808Z"/>
</mask>
<path d="M528 808H624V904H528V808Z" fill="#191C1F"/>
<path d="M624 904V905H625V904H624ZM623 808V904H625V808H623ZM624 903H528V905H624V903Z" fill="#353A40" mask="url(#path-303-inside-151_3045_709)"/>
<mask id="path-305-inside-152_3045_709" fill="white">
<path d="M624 808H720V904H624V808Z"/>
</mask>
<path d="M720 904V905H721V904H720ZM719 808V904H721V808H719ZM720 903H624V905H720V903Z" fill="#353A40" mask="url(#path-305-inside-152_3045_709)"/>
<mask id="path-307-inside-153_3045_709" fill="white">
<path d="M720 808H816V904H720V808Z"/>
</mask>
<path d="M816 904V905H817V904H816ZM815 808V904H817V808H815ZM816 903H720V905H816V903Z" fill="#353A40" mask="url(#path-307-inside-153_3045_709)"/>
<mask id="path-309-inside-154_3045_709" fill="white">
<path d="M816 808H912V904H816V808Z"/>
</mask>
<path d="M912 904V905H913V904H912ZM911 808V904H913V808H911ZM912 903H816V905H912V903Z" fill="#353A40" mask="url(#path-309-inside-154_3045_709)"/>
<mask id="path-311-inside-155_3045_709" fill="white">
<path d="M912 808H1008V904H912V808Z"/>
</mask>
<path d="M1008 904V905H1009V904H1008ZM1007 808V904H1009V808H1007ZM1008 903H912V905H1008V903Z" fill="#353A40" mask="url(#path-311-inside-155_3045_709)"/>
<mask id="path-313-inside-156_3045_709" fill="white">
<path d="M1008 808H1104V904H1008V808Z"/>
</mask>
<path d="M1104 904V905H1105V904H1104ZM1103 808V904H1105V808H1103ZM1104 903H1008V905H1104V903Z" fill="#353A40" mask="url(#path-313-inside-156_3045_709)"/>
<mask id="path-315-inside-157_3045_709" fill="white">
<path d="M1104 808H1200V904H1104V808Z"/>
</mask>
<path d="M1200 904V905H1201V904H1200ZM1199 808V904H1201V808H1199ZM1200 903H1104V905H1200V903Z" fill="#353A40" mask="url(#path-315-inside-157_3045_709)"/>
<mask id="path-317-inside-158_3045_709" fill="white">
<path d="M1200 808H1296V904H1200V808Z"/>
</mask>
<path d="M1296 904V905H1297V904H1296ZM1295 808V904H1297V808H1295ZM1296 903H1200V905H1296V903Z" fill="#353A40" mask="url(#path-317-inside-158_3045_709)"/>
<mask id="path-319-inside-159_3045_709" fill="white">
<path d="M1296 808H1392V904H1296V808Z"/>
</mask>
<path d="M1392 904V905H1393V904H1392ZM1391 808V904H1393V808H1391ZM1392 903H1296V905H1392V903Z" fill="#353A40" mask="url(#path-319-inside-159_3045_709)"/>
<mask id="path-321-inside-160_3045_709" fill="white">
<path d="M1392 808H1488V904H1392V808Z"/>
</mask>
<path d="M1488 904V905H1489V904H1488ZM1487 808V904H1489V808H1487ZM1488 903H1392V905H1488V903Z" fill="#353A40" mask="url(#path-321-inside-160_3045_709)"/>
<mask id="path-323-inside-161_3045_709" fill="white">
<path d="M-48 904H48V1000H-48V904Z"/>
</mask>
<path d="M48 1000V1001H49V1000H48ZM47 904V1000H49V904H47ZM48 999H-48V1001H48V999Z" fill="#353A40" mask="url(#path-323-inside-161_3045_709)"/>
<mask id="path-325-inside-162_3045_709" fill="white">
<path d="M48 904H144V1000H48V904Z"/>
</mask>
<path d="M144 1000V1001H145V1000H144ZM143 904V1000H145V904H143ZM144 999H48V1001H144V999Z" fill="#353A40" mask="url(#path-325-inside-162_3045_709)"/>
<mask id="path-327-inside-163_3045_709" fill="white">
<path d="M144 904H240V1000H144V904Z"/>
</mask>
<path d="M240 1000V1001H241V1000H240ZM239 904V1000H241V904H239ZM240 999H144V1001H240V999Z" fill="#353A40" mask="url(#path-327-inside-163_3045_709)"/>
<mask id="path-329-inside-164_3045_709" fill="white">
<path d="M240 904H336V1000H240V904Z"/>
</mask>
<path d="M240 904H336V1000H240V904Z" fill="#191C1F"/>
<path d="M336 1000V1001H337V1000H336ZM335 904V1000H337V904H335ZM336 999H240V1001H336V999Z" fill="#353A40" mask="url(#path-329-inside-164_3045_709)"/>
<mask id="path-331-inside-165_3045_709" fill="white">
<path d="M336 904H432V1000H336V904Z"/>
</mask>
<path d="M432 1000V1001H433V1000H432ZM431 904V1000H433V904H431ZM432 999H336V1001H432V999Z" fill="#353A40" mask="url(#path-331-inside-165_3045_709)"/>
<mask id="path-333-inside-166_3045_709" fill="white">
<path d="M432 904H528V1000H432V904Z"/>
</mask>
<path d="M528 1000V1001H529V1000H528ZM527 904V1000H529V904H527ZM528 999H432V1001H528V999Z" fill="#353A40" mask="url(#path-333-inside-166_3045_709)"/>
<mask id="path-335-inside-167_3045_709" fill="white">
<path d="M528 904H624V1000H528V904Z"/>
</mask>
<path d="M624 1000V1001H625V1000H624ZM623 904V1000H625V904H623ZM624 999H528V1001H624V999Z" fill="#353A40" mask="url(#path-335-inside-167_3045_709)"/>
<mask id="path-337-inside-168_3045_709" fill="white">
<path d="M624 904H720V1000H624V904Z"/>
</mask>
<path d="M720 1000V1001H721V1000H720ZM719 904V1000H721V904H719ZM720 999H624V1001H720V999Z" fill="#353A40" mask="url(#path-337-inside-168_3045_709)"/>
<mask id="path-339-inside-169_3045_709" fill="white">
<path d="M720 904H816V1000H720V904Z"/>
</mask>
<path d="M816 1000V1001H817V1000H816ZM815 904V1000H817V904H815ZM816 999H720V1001H816V999Z" fill="#353A40" mask="url(#path-339-inside-169_3045_709)"/>
<mask id="path-341-inside-170_3045_709" fill="white">
<path d="M816 904H912V1000H816V904Z"/>
</mask>
<path d="M816 904H912V1000H816V904Z" fill="#191C1F"/>
<path d="M912 1000V1001H913V1000H912ZM911 904V1000H913V904H911ZM912 999H816V1001H912V999Z" fill="#353A40" mask="url(#path-341-inside-170_3045_709)"/>
<mask id="path-343-inside-171_3045_709" fill="white">
<path d="M912 904H1008V1000H912V904Z"/>
</mask>
<path d="M1008 1000V1001H1009V1000H1008ZM1007 904V1000H1009V904H1007ZM1008 999H912V1001H1008V999Z" fill="#353A40" mask="url(#path-343-inside-171_3045_709)"/>
<mask id="path-345-inside-172_3045_709" fill="white">
<path d="M1008 904H1104V1000H1008V904Z"/>
</mask>
<path d="M1104 1000V1001H1105V1000H1104ZM1103 904V1000H1105V904H1103ZM1104 999H1008V1001H1104V999Z" fill="#353A40" mask="url(#path-345-inside-172_3045_709)"/>
<mask id="path-347-inside-173_3045_709" fill="white">
<path d="M1104 904H1200V1000H1104V904Z"/>
</mask>
<path d="M1200 1000V1001H1201V1000H1200ZM1199 904V1000H1201V904H1199ZM1200 999H1104V1001H1200V999Z" fill="#353A40" mask="url(#path-347-inside-173_3045_709)"/>
<mask id="path-349-inside-174_3045_709" fill="white">
<path d="M1200 904H1296V1000H1200V904Z"/>
</mask>
<path d="M1296 1000V1001H1297V1000H1296ZM1295 904V1000H1297V904H1295ZM1296 999H1200V1001H1296V999Z" fill="#353A40" mask="url(#path-349-inside-174_3045_709)"/>
<mask id="path-351-inside-175_3045_709" fill="white">
<path d="M1296 904H1392V1000H1296V904Z"/>
</mask>
<path d="M1392 1000V1001H1393V1000H1392ZM1391 904V1000H1393V904H1391ZM1392 999H1296V1001H1392V999Z" fill="#353A40" mask="url(#path-351-inside-175_3045_709)"/>
<mask id="path-353-inside-176_3045_709" fill="white">
<path d="M1392 904H1488V1000H1392V904Z"/>
</mask>
<path d="M1488 1000V1001H1489V1000H1488ZM1487 904V1000H1489V904H1487ZM1488 999H1392V1001H1488V999Z" fill="#353A40" mask="url(#path-353-inside-176_3045_709)"/>
<mask id="path-355-inside-177_3045_709" fill="white">
<path d="M-48 1000H48V1096H-48V1000Z"/>
</mask>
<path d="M48 1096V1097H49V1096H48ZM47 1000V1096H49V1000H47ZM48 1095H-48V1097H48V1095Z" fill="#353A40" mask="url(#path-355-inside-177_3045_709)"/>
<mask id="path-357-inside-178_3045_709" fill="white">
<path d="M48 1000H144V1096H48V1000Z"/>
</mask>
<path d="M48 1000H144V1096H48V1000Z" fill="#191C1F"/>
<path d="M144 1096V1097H145V1096H144ZM143 1000V1096H145V1000H143ZM144 1095H48V1097H144V1095Z" fill="#353A40" mask="url(#path-357-inside-178_3045_709)"/>
<mask id="path-359-inside-179_3045_709" fill="white">
<path d="M144 1000H240V1096H144V1000Z"/>
</mask>
<path d="M240 1096V1097H241V1096H240ZM239 1000V1096H241V1000H239ZM240 1095H144V1097H240V1095Z" fill="#353A40" mask="url(#path-359-inside-179_3045_709)"/>
<mask id="path-361-inside-180_3045_709" fill="white">
<path d="M240 1000H336V1096H240V1000Z"/>
</mask>
<path d="M336 1096V1097H337V1096H336ZM335 1000V1096H337V1000H335ZM336 1095H240V1097H336V1095Z" fill="#353A40" mask="url(#path-361-inside-180_3045_709)"/>
<mask id="path-363-inside-181_3045_709" fill="white">
<path d="M336 1000H432V1096H336V1000Z"/>
</mask>
<path d="M432 1096V1097H433V1096H432ZM431 1000V1096H433V1000H431ZM432 1095H336V1097H432V1095Z" fill="#353A40" mask="url(#path-363-inside-181_3045_709)"/>
<mask id="path-365-inside-182_3045_709" fill="white">
<path d="M432 1000H528V1096H432V1000Z"/>
</mask>
<path d="M528 1096V1097H529V1096H528ZM527 1000V1096H529V1000H527ZM528 1095H432V1097H528V1095Z" fill="#353A40" mask="url(#path-365-inside-182_3045_709)"/>
<mask id="path-367-inside-183_3045_709" fill="white">
<path d="M528 1000H624V1096H528V1000Z"/>
</mask>
<path d="M624 1096V1097H625V1096H624ZM623 1000V1096H625V1000H623ZM624 1095H528V1097H624V1095Z" fill="#353A40" mask="url(#path-367-inside-183_3045_709)"/>
<mask id="path-369-inside-184_3045_709" fill="white">
<path d="M624 1000H720V1096H624V1000Z"/>
</mask>
<path d="M720 1096V1097H721V1096H720ZM719 1000V1096H721V1000H719ZM720 1095H624V1097H720V1095Z" fill="#353A40" mask="url(#path-369-inside-184_3045_709)"/>
<mask id="path-371-inside-185_3045_709" fill="white">
<path d="M720 1000H816V1096H720V1000Z"/>
</mask>
<path d="M816 1096V1097H817V1096H816ZM815 1000V1096H817V1000H815ZM816 1095H720V1097H816V1095Z" fill="#353A40" mask="url(#path-371-inside-185_3045_709)"/>
<mask id="path-373-inside-186_3045_709" fill="white">
<path d="M816 1000H912V1096H816V1000Z"/>
</mask>
<path d="M912 1096V1097H913V1096H912ZM911 1000V1096H913V1000H911ZM912 1095H816V1097H912V1095Z" fill="#353A40" mask="url(#path-373-inside-186_3045_709)"/>
<mask id="path-375-inside-187_3045_709" fill="white">
<path d="M912 1000H1008V1096H912V1000Z"/>
</mask>
<path d="M1008 1096V1097H1009V1096H1008ZM1007 1000V1096H1009V1000H1007ZM1008 1095H912V1097H1008V1095Z" fill="#353A40" mask="url(#path-375-inside-187_3045_709)"/>
<mask id="path-377-inside-188_3045_709" fill="white">
<path d="M1008 1000H1104V1096H1008V1000Z"/>
</mask>
<path d="M1104 1096V1097H1105V1096H1104ZM1103 1000V1096H1105V1000H1103ZM1104 1095H1008V1097H1104V1095Z" fill="#353A40" mask="url(#path-377-inside-188_3045_709)"/>
<mask id="path-379-inside-189_3045_709" fill="white">
<path d="M1104 1000H1200V1096H1104V1000Z"/>
</mask>
<path d="M1200 1096V1097H1201V1096H1200ZM1199 1000V1096H1201V1000H1199ZM1200 1095H1104V1097H1200V1095Z" fill="#353A40" mask="url(#path-379-inside-189_3045_709)"/>
<mask id="path-381-inside-190_3045_709" fill="white">
<path d="M1200 1000H1296V1096H1200V1000Z"/>
</mask>
<path d="M1296 1096V1097H1297V1096H1296ZM1295 1000V1096H1297V1000H1295ZM1296 1095H1200V1097H1296V1095Z" fill="#353A40" mask="url(#path-381-inside-190_3045_709)"/>
<mask id="path-383-inside-191_3045_709" fill="white">
<path d="M1296 1000H1392V1096H1296V1000Z"/>
</mask>
<path d="M1296 1000H1392V1096H1296V1000Z" fill="#191C1F"/>
<path d="M1392 1096V1097H1393V1096H1392ZM1391 1000V1096H1393V1000H1391ZM1392 1095H1296V1097H1392V1095Z" fill="#353A40" mask="url(#path-383-inside-191_3045_709)"/>
<mask id="path-385-inside-192_3045_709" fill="white">
<path d="M1392 1000H1488V1096H1392V1000Z"/>
</mask>
<path d="M1488 1096V1097H1489V1096H1488ZM1487 1000V1096H1489V1000H1487ZM1488 1095H1392V1097H1488V1095Z" fill="#353A40" mask="url(#path-385-inside-192_3045_709)"/>
</g>
<rect x="-239.5" y="-343.5" width="1919" height="1439" stroke="#353A40"/>
<defs>
<clipPath id="clip0_3045_709">
<rect x="-240" y="-344" width="1920" height="1440" fill="white"/>
</clipPath>
</defs>
</svg>
